Two long-separated childhood friends, a 14-year-old boy and girl, are reunited at summer camp. There, they begin to fall in love with one another and assume the responsibilities of adulthood. However, their budding romance is largely thwarted by the camp's strict rules prohibiting contact between boy and girl campers. They suffer further reverses when another girl with a crush on the boy writes an accusatory letter about the girl. Meanwhile, the camp is attempting to put together a production of Shakespeare's Romeo and Juliet. With pluck, determination and good cheer, things turn out well for the kids. 

   General
      Complete name : Sieben Sommersprossen.avi
      Format : AVI
      Format/Info : Audio Video Interleave
      File size : 936 MiB
      Duration : 1h 15mn
      Overall bit rate : 1 728 Kbps
      Writing application : FairUse Wizard - http://fairusewizard.com
      Writing library : The best and REALLY easy backup tool
   Video #0
      ID : 0
      Format : MPEG-4 Visual
      Format profile : AdvancedSimple@L5
      Format settings, BVOP : Yes
      Format settings, QPel : No
      Format settings, GMC : No warppoints
      Format settings, Matrix : Default (MPEG)
      Muxing mode : Packed bitstream
      Codec ID : XVID
      Codec ID/Hint : XviD
      Duration : 1h 15mn
      Bit rate : 1 526 Kbps
      Width : 704 pixels
      Height : 384 pixels
      Display aspect ratio : 16:9
      Frame rate : 25.000 fps
      Resolution : 24 bits
      Colorimetry : 4:2:0
      Scan type : Progressive
      Bits/(Pixel*Frame) : 0.226
      Stream size : 827 MiB (88%)
      Writing library : XviD 1.2.0.dev47 (UTC 2006-11-01)
   Audio #1
      ID : 1
      Format : AC-3
      Format/Info : Audio Coding 3
      Codec ID : 2000
      Duration : 1h 15mn
      Bit rate mode : Constant
      Bit rate : 192 Kbps
      Channel(s) : 2 channels
      Channel positions : L R
      Sampling rate : 48.0 KHz
      Stream size : 104 MiB (11%)
      Alignment : Split accross interleaves
      Interleave, duration : 40 ms (1.00 video frame)
      Interleave, preload duration : 500 ms

IMDB: tt0078264

German audio; Multilanguage subpack (Arabic, Deutsch, English, Español, Français, Italiano, Japanese, Português, Russian, Turkish, Chinese)

My rip of the Goethe Institut DVD